<?xml version="1.0" encoding="utf-8" standalone="no"?>
<!DOCTYPE svg PUBLIC "-//W3C//DTD SVG 1.1//EN"
  "http://www.w3.org/Graphics/SVG/1.1/DTD/svg11.dtd">
<svg xmlns:xlink="http://www.w3.org/1999/xlink" width="184.655949pt" height="317.581374pt" viewBox="0 0 184.655949 317.581374" xmlns="http://www.w3.org/2000/svg" version="1.1">
 <metadata>
  <rdf:RDF xmlns:dc="http://purl.org/dc/elements/1.1/" xmlns:cc="http://creativecommons.org/ns#" xmlns:rdf="http://www.w3.org/1999/02/22-rdf-syntax-ns#">
   <cc:Work>
    <dc:type rdf:resource="http://purl.org/dc/dcmitype/StillImage"/>
    <dc:date>2025-03-24T21:24:17.728778</dc:date>
    <dc:format>image/svg+xml</dc:format>
    <dc:creator>
     <cc:Agent>
      <dc:title>Matplotlib v3.8.4, https://matplotlib.org/</dc:title>
     </cc:Agent>
    </dc:creator>
   </cc:Work>
  </rdf:RDF>
 </metadata>
 <defs>
  <style type="text/css">*{stroke-linejoin: round; stroke-linecap: butt}</style>
 </defs>
 <g id="figure_1">
  <g id="patch_1">
   <path d="M 0 317.581374 
L 184.655949 317.581374 
L 184.655949 0 
L 0 0 
z
" style="fill: #ffffff"/>
  </g>
  <g id="axes_1">
   <g id="patch_2">
    <path d="M 8.171358 280.8 
L 175.571358 280.8 
L 175.571358 3.6 
L 8.171358 3.6 
z
" style="fill: #ffffff"/>
   </g>
   <g id="matplotlib.axis_1">
    <g id="xtick_1">
     <g id="line2d_1">
      <defs>
       <path id="m3c8a0827f4" d="M 0 0 
L 0 -3 
" style="stroke: #000000; stroke-width: 0.5"/>
      </defs>
      <g>
       <use xlink:href="#m3c8a0827f4" x="8.171358" y="280.8" style="stroke: #000000; stroke-width: 0.5"/>
      </g>
     </g>
     <g id="line2d_2">
      <defs>
       <path id="mb4a43dc517" d="M 0 0 
L 0 3 
" style="stroke: #000000; stroke-width: 0.5"/>
      </defs>
      <g>
       <use xlink:href="#mb4a43dc517" x="8.171358" y="3.6" style="stroke: #000000; stroke-width: 0.5"/>
      </g>
     </g>
     <g id="text_1">
      <!-- L -->
      <g transform="translate(3.6 294.677725) scale(0.15 -0.15)">
       <defs>
        <path id="CMR17-4c" d="M 3469 1615 
L 3354 1615 
C 3302 983 3219 166 2125 166 
L 1530 166 
C 1274 166 1261 197 1261 414 
L 1261 3898 
C 1261 4129 1274 4192 1760 4192 
L 1901 4192 
L 1901 4352 
C 1638 4352 1331 4352 1069 4352 
C 870 4352 512 4352 326 4352 
L 326 4192 
C 768 4192 838 4192 838 3905 
L 838 452 
C 838 166 768 166 326 166 
L 326 0 
L 3315 0 
L 3469 1615 
z
" transform="scale(0.015625)"/>
       </defs>
       <use xlink:href="#CMR17-4c" transform="scale(0.996264)"/>
      </g>
     </g>
    </g>
    <g id="xtick_2">
     <g id="line2d_3">
      <g>
       <use xlink:href="#m3c8a0827f4" x="47.445974" y="280.8" style="stroke: #000000; stroke-width: 0.5"/>
      </g>
     </g>
     <g id="line2d_4">
      <g>
       <use xlink:href="#mb4a43dc517" x="47.445974" y="3.6" style="stroke: #000000; stroke-width: 0.5"/>
      </g>
     </g>
     <g id="text_2">
      <!-- $\Lambda$ -->
      <g transform="translate(42.367841 294.677725) scale(0.15 -0.15)">
       <defs>
        <path id="CMR17-3" d="M 2150 4403 
C 2118 4505 2112 4512 2048 4512 
C 1984 4512 1978 4505 1946 4403 
L 685 576 
C 570 237 358 160 147 160 
L 147 0 
C 256 0 480 0 595 0 
C 755 0 1005 0 1158 -6 
L 1158 160 
C 819 160 800 404 800 449 
C 800 494 813 532 832 596 
L 1894 3835 
L 3008 461 
C 3040 372 3040 359 3040 340 
C 3040 160 2771 160 2637 160 
L 2637 0 
C 2822 0 3149 0 3347 0 
C 3507 0 3802 0 3949 -6 
L 3949 160 
C 3667 160 3552 160 3475 384 
L 2150 4403 
z
" transform="scale(0.015625)"/>
       </defs>
       <use xlink:href="#CMR17-3" transform="scale(0.996264)"/>
      </g>
     </g>
    </g>
    <g id="xtick_3">
     <g id="line2d_5">
      <g>
       <use xlink:href="#m3c8a0827f4" x="86.720589" y="280.8" style="stroke: #000000; stroke-width: 0.5"/>
      </g>
     </g>
     <g id="line2d_6">
      <g>
       <use xlink:href="#mb4a43dc517" x="86.720589" y="3.6" style="stroke: #000000; stroke-width: 0.5"/>
      </g>
     </g>
     <g id="text_3">
      <!-- $\Gamma$ -->
      <g transform="translate(82.149231 294.677725) scale(0.15 -0.15)">
       <defs>
        <path id="CMR17-0" d="M 3315 4352 
L 326 4352 
L 326 4186 
C 768 4186 838 4186 838 3898 
L 838 448 
C 838 160 768 160 326 160 
L 326 0 
C 512 0 870 0 1069 0 
C 1331 0 1638 0 1901 0 
L 1901 160 
L 1760 160 
C 1274 160 1261 224 1261 455 
L 1261 3936 
C 1261 4154 1274 4186 1530 4186 
L 2234 4186 
C 3206 4186 3258 3738 3354 2938 
L 3469 2938 
L 3315 4352 
z
" transform="scale(0.015625)"/>
       </defs>
       <use xlink:href="#CMR17-0" transform="scale(0.996264)"/>
      </g>
     </g>
    </g>
    <g id="xtick_4">
     <g id="line2d_7">
      <g>
       <use xlink:href="#m3c8a0827f4" x="131.145974" y="280.8" style="stroke: #000000; stroke-width: 0.5"/>
      </g>
     </g>
     <g id="line2d_8">
      <g>
       <use xlink:href="#mb4a43dc517" x="131.145974" y="3.6" style="stroke: #000000; stroke-width: 0.5"/>
      </g>
     </g>
     <g id="text_4">
      <!-- $\Delta$ -->
      <g transform="translate(125.049109 294.677725) scale(0.15 -0.15)">
       <defs>
        <path id="CMR17-1" d="M 2598 4403 
C 2547 4512 2522 4512 2470 4512 
C 2394 4512 2387 4499 2342 4409 
L 269 109 
C 262 96 237 38 237 32 
C 237 6 243 0 358 0 
L 4576 0 
C 4691 0 4698 6 4698 32 
C 4698 38 4672 96 4666 109 
L 2598 4403 
z
M 2310 4038 
L 4083 358 
L 531 358 
L 2310 4038 
z
" transform="scale(0.015625)"/>
       </defs>
       <use xlink:href="#CMR17-1" transform="scale(0.996264)"/>
      </g>
     </g>
    </g>
    <g id="xtick_5">
     <g id="line2d_9">
      <g>
       <use xlink:href="#m3c8a0827f4" x="175.571358" y="280.8" style="stroke: #000000; stroke-width: 0.5"/>
      </g>
     </g>
     <g id="line2d_10">
      <g>
       <use xlink:href="#mb4a43dc517" x="175.571358" y="3.6" style="stroke: #000000; stroke-width: 0.5"/>
      </g>
     </g>
     <g id="text_5">
      <!-- X -->
      <g transform="translate(170.086768 294.677725) scale(0.15 -0.15)">
       <defs>
        <path id="CMR17-58" d="M 2336 2398 
L 3283 3753 
C 3379 3886 3571 4160 4096 4160 
L 4096 4332 
C 3949 4319 3706 4319 3552 4319 
C 3341 4319 3078 4319 2918 4332 
L 2918 4166 
C 3123 4147 3174 4020 3174 3918 
C 3174 3843 3142 3792 3098 3728 
L 2253 2513 
L 1306 3887 
C 1261 3956 1254 3975 1254 3994 
C 1254 4052 1325 4160 1536 4160 
L 1536 4319 
C 1331 4319 1018 4319 806 4319 
C 640 4319 320 4319 166 4332 
L 166 4160 
C 518 4160 634 4148 774 3951 
L 2010 2163 
L 896 549 
C 621 153 205 153 83 153 
L 83 -13 
C 230 0 474 0 627 0 
C 800 0 1101 0 1261 -13 
L 1261 153 
C 1062 172 1005 299 1005 401 
C 1005 483 1037 528 1069 572 
L 2093 2048 
L 3206 422 
C 3258 352 3258 333 3258 314 
C 3258 263 3200 153 2976 153 
L 2976 0 
C 3181 0 3494 0 3706 0 
C 3872 0 4192 0 4346 -13 
L 4346 153 
C 3936 153 3872 184 3744 363 
L 2336 2398 
z
" transform="scale(0.015625)"/>
       </defs>
       <use xlink:href="#CMR17-58" transform="scale(0.996264)"/>
      </g>
     </g>
    </g>
    <g id="xtick_6">
     <g id="line2d_11">
      <defs>
       <path id="mabfdf735dc" d="M 0 0 
L 0 -1.5 
" style="stroke: #000000; stroke-width: 0.5"/>
      </defs>
      <g>
       <use xlink:href="#mabfdf735dc" x="17.990012" y="280.8" style="stroke: #000000; stroke-width: 0.5"/>
      </g>
     </g>
     <g id="line2d_12">
      <defs>
       <path id="m6df1098823" d="M 0 0 
L 0 1.5 
" style="stroke: #000000; stroke-width: 0.5"/>
      </defs>
      <g>
       <use xlink:href="#m6df1098823" x="17.990012" y="3.6" style="stroke: #000000; stroke-width: 0.5"/>
      </g>
     </g>
    </g>
    <g id="xtick_7">
     <g id="line2d_13">
      <g>
       <use xlink:href="#mabfdf735dc" x="27.808666" y="280.8" style="stroke: #000000; stroke-width: 0.5"/>
      </g>
     </g>
     <g id="line2d_14">
      <g>
       <use xlink:href="#m6df1098823" x="27.808666" y="3.6" style="stroke: #000000; stroke-width: 0.5"/>
      </g>
     </g>
    </g>
    <g id="xtick_8">
     <g id="line2d_15">
      <g>
       <use xlink:href="#mabfdf735dc" x="37.62732" y="280.8" style="stroke: #000000; stroke-width: 0.5"/>
      </g>
     </g>
     <g id="line2d_16">
      <g>
       <use xlink:href="#m6df1098823" x="37.62732" y="3.6" style="stroke: #000000; stroke-width: 0.5"/>
      </g>
     </g>
    </g>
    <g id="xtick_9">
     <g id="line2d_17">
      <g>
       <use xlink:href="#mabfdf735dc" x="57.264628" y="280.8" style="stroke: #000000; stroke-width: 0.5"/>
      </g>
     </g>
     <g id="line2d_18">
      <g>
       <use xlink:href="#m6df1098823" x="57.264628" y="3.6" style="stroke: #000000; stroke-width: 0.5"/>
      </g>
     </g>
    </g>
    <g id="xtick_10">
     <g id="line2d_19">
      <g>
       <use xlink:href="#mabfdf735dc" x="67.083281" y="280.8" style="stroke: #000000; stroke-width: 0.5"/>
      </g>
     </g>
     <g id="line2d_20">
      <g>
       <use xlink:href="#m6df1098823" x="67.083281" y="3.6" style="stroke: #000000; stroke-width: 0.5"/>
      </g>
     </g>
    </g>
    <g id="xtick_11">
     <g id="line2d_21">
      <g>
       <use xlink:href="#mabfdf735dc" x="76.901935" y="280.8" style="stroke: #000000; stroke-width: 0.5"/>
      </g>
     </g>
     <g id="line2d_22">
      <g>
       <use xlink:href="#m6df1098823" x="76.901935" y="3.6" style="stroke: #000000; stroke-width: 0.5"/>
      </g>
     </g>
    </g>
    <g id="xtick_12">
     <g id="line2d_23">
      <g>
       <use xlink:href="#mabfdf735dc" x="96.539243" y="280.8" style="stroke: #000000; stroke-width: 0.5"/>
      </g>
     </g>
     <g id="line2d_24">
      <g>
       <use xlink:href="#m6df1098823" x="96.539243" y="3.6" style="stroke: #000000; stroke-width: 0.5"/>
      </g>
     </g>
    </g>
    <g id="xtick_13">
     <g id="line2d_25">
      <g>
       <use xlink:href="#mabfdf735dc" x="106.357897" y="280.8" style="stroke: #000000; stroke-width: 0.5"/>
      </g>
     </g>
     <g id="line2d_26">
      <g>
       <use xlink:href="#m6df1098823" x="106.357897" y="3.6" style="stroke: #000000; stroke-width: 0.5"/>
      </g>
     </g>
    </g>
    <g id="xtick_14">
     <g id="line2d_27">
      <g>
       <use xlink:href="#mabfdf735dc" x="116.176551" y="280.8" style="stroke: #000000; stroke-width: 0.5"/>
      </g>
     </g>
     <g id="line2d_28">
      <g>
       <use xlink:href="#m6df1098823" x="116.176551" y="3.6" style="stroke: #000000; stroke-width: 0.5"/>
      </g>
     </g>
    </g>
    <g id="xtick_15">
     <g id="line2d_29">
      <g>
       <use xlink:href="#mabfdf735dc" x="125.995205" y="280.8" style="stroke: #000000; stroke-width: 0.5"/>
      </g>
     </g>
     <g id="line2d_30">
      <g>
       <use xlink:href="#m6df1098823" x="125.995205" y="3.6" style="stroke: #000000; stroke-width: 0.5"/>
      </g>
     </g>
    </g>
    <g id="xtick_16">
     <g id="line2d_31">
      <g>
       <use xlink:href="#mabfdf735dc" x="135.813858" y="280.8" style="stroke: #000000; stroke-width: 0.5"/>
      </g>
     </g>
     <g id="line2d_32">
      <g>
       <use xlink:href="#m6df1098823" x="135.813858" y="3.6" style="stroke: #000000; stroke-width: 0.5"/>
      </g>
     </g>
    </g>
    <g id="xtick_17">
     <g id="line2d_33">
      <g>
       <use xlink:href="#mabfdf735dc" x="145.632512" y="280.8" style="stroke: #000000; stroke-width: 0.5"/>
      </g>
     </g>
     <g id="line2d_34">
      <g>
       <use xlink:href="#m6df1098823" x="145.632512" y="3.6" style="stroke: #000000; stroke-width: 0.5"/>
      </g>
     </g>
    </g>
    <g id="xtick_18">
     <g id="line2d_35">
      <g>
       <use xlink:href="#mabfdf735dc" x="155.451166" y="280.8" style="stroke: #000000; stroke-width: 0.5"/>
      </g>
     </g>
     <g id="line2d_36">
      <g>
       <use xlink:href="#m6df1098823" x="155.451166" y="3.6" style="stroke: #000000; stroke-width: 0.5"/>
      </g>
     </g>
    </g>
    <g id="xtick_19">
     <g id="line2d_37">
      <g>
       <use xlink:href="#mabfdf735dc" x="165.26982" y="280.8" style="stroke: #000000; stroke-width: 0.5"/>
      </g>
     </g>
     <g id="line2d_38">
      <g>
       <use xlink:href="#m6df1098823" x="165.26982" y="3.6" style="stroke: #000000; stroke-width: 0.5"/>
      </g>
     </g>
    </g>
    <g id="xtick_20">
     <g id="line2d_39">
      <g>
       <use xlink:href="#mabfdf735dc" x="175.088474" y="280.8" style="stroke: #000000; stroke-width: 0.5"/>
      </g>
     </g>
     <g id="line2d_40">
      <g>
       <use xlink:href="#m6df1098823" x="175.088474" y="3.6" style="stroke: #000000; stroke-width: 0.5"/>
      </g>
     </g>
    </g>
    <g id="text_6">
     <!-- Wavevector -->
     <g transform="translate(57.541652 311.269346) scale(0.14 -0.14)">
      <defs>
       <path id="CMR17-57" d="M 5523 3764 
C 5581 3936 5677 4160 6048 4160 
L 6048 4326 
C 5939 4326 5715 4326 5600 4326 
C 5440 4326 5158 4326 5005 4332 
L 5005 4160 
C 5293 4160 5414 4000 5414 3847 
C 5414 3802 5408 3777 5382 3707 
L 4390 555 
L 3347 3873 
C 3328 3937 3322 3963 3322 3988 
C 3322 4160 3603 4160 3725 4160 
L 3725 4326 
C 3539 4326 3219 4326 3021 4326 
C 2861 4326 2573 4326 2426 4332 
L 2426 4160 
C 2720 4160 2797 4141 2861 4027 
C 2886 3969 2989 3638 2989 3619 
C 2989 3593 2976 3555 2970 3536 
L 2029 561 
L 986 3867 
C 954 3957 954 3969 954 3982 
C 954 4160 1235 4160 1363 4160 
L 1363 4326 
C 1178 4326 858 4326 659 4326 
C 493 4326 211 4326 58 4332 
L 58 4160 
C 442 4160 467 4122 531 3918 
L 1779 -20 
C 1811 -115 1811 -128 1869 -128 
C 1920 -128 1939 -115 1965 -26 
L 3053 3433 
L 4141 -26 
C 4166 -115 4186 -128 4237 -128 
C 4294 -128 4294 -115 4326 -20 
L 5523 3764 
z
" transform="scale(0.015625)"/>
       <path id="CMR17-61" d="M 2304 1653 
C 2304 2072 2304 2294 2035 2543 
C 1798 2752 1523 2816 1306 2816 
C 800 2816 435 2407 435 1971 
C 435 1728 627 1728 666 1728 
C 749 1728 896 1778 896 1954 
C 896 2112 774 2181 666 2181 
C 640 2181 608 2174 589 2168 
C 723 2592 1069 2714 1293 2714 
C 1613 2714 1965 2429 1965 1885 
L 1965 1600 
C 1587 1600 1133 1549 774 1357 
C 371 1133 256 813 256 570 
C 256 77 832 -64 1171 -64 
C 1523 -64 1850 139 1990 511 
C 2003 233 2182 -18 2464 -18 
C 2598 -18 2938 70 2938 567 
L 2938 920 
L 2822 920 
L 2822 562 
C 2822 178 2650 128 2566 128 
C 2304 128 2304 458 2304 738 
L 2304 1653 
z
M 1965 870 
C 1965 317 1568 38 1216 38 
C 896 38 646 275 646 570 
C 646 761 730 1100 1101 1305 
C 1408 1478 1760 1504 1965 1504 
L 1965 870 
z
" transform="scale(0.015625)"/>
       <path id="CMR17-76" d="M 2502 2163 
C 2560 2304 2662 2560 3034 2560 
L 3034 2726 
C 2912 2726 2752 2726 2630 2726 
C 2496 2726 2285 2726 2157 2732 
L 2157 2566 
C 2317 2553 2406 2477 2406 2311 
C 2406 2253 2406 2240 2368 2151 
L 1664 377 
L 902 2286 
C 864 2369 864 2381 864 2407 
C 864 2560 1075 2560 1171 2560 
L 1171 2732 
C 1018 2726 736 2726 576 2726 
C 403 2726 205 2726 64 2732 
L 64 2560 
C 307 2560 442 2560 518 2362 
L 1446 44 
C 1485 -51 1491 -64 1549 -64 
C 1606 -64 1613 -51 1651 44 
L 2502 2163 
z
" transform="scale(0.015625)"/>
       <path id="CMR17-65" d="M 2438 1472 
C 2464 1498 2464 1511 2464 1576 
C 2464 2238 2118 2816 1389 2816 
C 710 2816 173 2169 173 1383 
C 173 551 781 -64 1459 -64 
C 2176 -64 2458 607 2458 740 
C 2458 784 2419 784 2406 784 
C 2362 784 2355 771 2330 696 
C 2189 265 1837 51 1504 51 
C 1229 51 954 203 781 480 
C 582 803 582 1176 582 1472 
L 2438 1472 
z
M 589 1568 
C 634 2505 1126 2714 1382 2714 
C 1818 2714 2112 2297 2118 1568 
L 589 1568 
z
" transform="scale(0.015625)"/>
       <path id="CMR17-63" d="M 2234 2240 
C 2112 2240 1933 2240 1933 2017 
C 1933 1838 2080 1787 2163 1787 
C 2208 1787 2394 1807 2394 2024 
C 2394 2467 1958 2803 1466 2803 
C 787 2803 211 2178 211 1363 
C 211 516 813 -64 1466 -64 
C 2259 -64 2458 677 2458 748 
C 2458 774 2451 793 2406 793 
C 2362 793 2355 787 2330 703 
C 2163 180 1798 51 1523 51 
C 1114 51 621 427 621 1369 
C 621 2338 1094 2688 1472 2688 
C 1722 2688 2093 2573 2234 2240 
z
" transform="scale(0.015625)"/>
       <path id="CMR17-74" d="M 966 2560 
L 1862 2560 
L 1862 2725 
L 966 2725 
L 966 3904 
L 851 3904 
C 838 3245 614 2668 70 2668 
L 70 2560 
L 627 2560 
L 627 771 
C 627 650 627 -64 1370 -64 
C 1747 -64 1965 306 1965 777 
L 1965 1140 
L 1850 1140 
L 1850 783 
C 1850 344 1677 51 1408 51 
C 1222 51 966 178 966 758 
L 966 2560 
z
" transform="scale(0.015625)"/>
       <path id="CMR17-6f" d="M 2758 1356 
C 2758 2176 2163 2816 1466 2816 
C 768 2816 173 2176 173 1356 
C 173 551 768 -64 1466 -64 
C 2163 -64 2758 551 2758 1356 
z
M 1466 51 
C 1165 51 909 230 762 480 
C 602 767 582 1126 582 1408 
C 582 1677 595 2010 762 2298 
C 890 2509 1139 2714 1466 2714 
C 1754 2714 1997 2554 2150 2330 
C 2349 2029 2349 1607 2349 1408 
C 2349 1158 2336 775 2163 467 
C 1984 173 1709 51 1466 51 
z
" transform="scale(0.015625)"/>
       <path id="CMR17-72" d="M 960 1497 
C 960 2112 1222 2688 1702 2688 
C 1747 2688 1792 2682 1837 2662 
C 1837 2662 1696 2617 1696 2452 
C 1696 2298 1818 2234 1914 2234 
C 1990 2234 2131 2279 2131 2458 
C 2131 2663 1926 2790 1709 2790 
C 1222 2790 1011 2317 947 2093 
L 941 2093 
L 941 2790 
L 198 2720 
L 198 2554 
C 576 2554 634 2515 634 2208 
L 634 428 
C 634 184 608 153 198 153 
L 198 -13 
C 352 0 646 0 813 0 
C 998 0 1325 0 1498 -13 
L 1498 153 
C 1037 153 960 153 960 440 
L 960 1497 
z
" transform="scale(0.015625)"/>
      </defs>
      <use xlink:href="#CMR17-57" transform="scale(0.996264)"/>
      <use xlink:href="#CMR17-61" transform="translate(87.289395 0) scale(0.996264)"/>
      <use xlink:href="#CMR17-76" transform="translate(130.377418 0) scale(0.996264)"/>
      <use xlink:href="#CMR17-65" transform="translate(176.06788 0) scale(0.996264)"/>
      <use xlink:href="#CMR17-76" transform="translate(216.55354 0) scale(0.996264)"/>
      <use xlink:href="#CMR17-65" transform="translate(262.244002 0) scale(0.996264)"/>
      <use xlink:href="#CMR17-63" transform="translate(302.729662 0) scale(0.996264)"/>
      <use xlink:href="#CMR17-74" transform="translate(343.215323 0) scale(0.996264)"/>
      <use xlink:href="#CMR17-6f" transform="translate(378.496091 0) scale(0.996264)"/>
      <use xlink:href="#CMR17-72" transform="translate(424.186568 0) scale(0.996264)"/>
     </g>
    </g>
   </g>
   <g id="matplotlib.axis_2">
    <g id="ytick_1">
     <g id="line2d_41">
      <defs>
       <path id="m28e9480ffc" d="M 0 0 
L 3 0 
" style="stroke: #000000; stroke-width: 0.5"/>
      </defs>
      <g>
       <use xlink:href="#m28e9480ffc" x="8.171358" y="257.7" style="stroke: #000000; stroke-width: 0.5"/>
      </g>
     </g>
     <g id="line2d_42">
      <defs>
       <path id="m138d7cfa8c" d="M 0 0 
L -3 0 
" style="stroke: #000000; stroke-width: 0.5"/>
      </defs>
      <g>
       <use xlink:href="#m138d7cfa8c" x="175.571358" y="257.7" style="stroke: #000000; stroke-width: 0.5"/>
      </g>
     </g>
    </g>
    <g id="ytick_2">
     <g id="line2d_43">
      <g>
       <use xlink:href="#m28e9480ffc" x="8.171358" y="211.5" style="stroke: #000000; stroke-width: 0.5"/>
      </g>
     </g>
     <g id="line2d_44">
      <g>
       <use xlink:href="#m138d7cfa8c" x="175.571358" y="211.5" style="stroke: #000000; stroke-width: 0.5"/>
      </g>
     </g>
    </g>
    <g id="ytick_3">
     <g id="line2d_45">
      <g>
       <use xlink:href="#m28e9480ffc" x="8.171358" y="165.3" style="stroke: #000000; stroke-width: 0.5"/>
      </g>
     </g>
     <g id="line2d_46">
      <g>
       <use xlink:href="#m138d7cfa8c" x="175.571358" y="165.3" style="stroke: #000000; stroke-width: 0.5"/>
      </g>
     </g>
    </g>
    <g id="ytick_4">
     <g id="line2d_47">
      <g>
       <use xlink:href="#m28e9480ffc" x="8.171358" y="119.1" style="stroke: #000000; stroke-width: 0.5"/>
      </g>
     </g>
     <g id="line2d_48">
      <g>
       <use xlink:href="#m138d7cfa8c" x="175.571358" y="119.1" style="stroke: #000000; stroke-width: 0.5"/>
      </g>
     </g>
    </g>
    <g id="ytick_5">
     <g id="line2d_49">
      <g>
       <use xlink:href="#m28e9480ffc" x="8.171358" y="72.9" style="stroke: #000000; stroke-width: 0.5"/>
      </g>
     </g>
     <g id="line2d_50">
      <g>
       <use xlink:href="#m138d7cfa8c" x="175.571358" y="72.9" style="stroke: #000000; stroke-width: 0.5"/>
      </g>
     </g>
    </g>
    <g id="ytick_6">
     <g id="line2d_51">
      <g>
       <use xlink:href="#m28e9480ffc" x="8.171358" y="26.7" style="stroke: #000000; stroke-width: 0.5"/>
      </g>
     </g>
     <g id="line2d_52">
      <g>
       <use xlink:href="#m138d7cfa8c" x="175.571358" y="26.7" style="stroke: #000000; stroke-width: 0.5"/>
      </g>
     </g>
    </g>
    <g id="ytick_7">
     <g id="line2d_53">
      <defs>
       <path id="mf4192f43cf" d="M 0 0 
L 1.5 0 
" style="stroke: #000000; stroke-width: 0.5"/>
      </defs>
      <g>
       <use xlink:href="#mf4192f43cf" x="8.171358" y="280.8" style="stroke: #000000; stroke-width: 0.5"/>
      </g>
     </g>
     <g id="line2d_54">
      <defs>
       <path id="mcbcdbe2c39" d="M 0 0 
L -1.5 0 
" style="stroke: #000000; stroke-width: 0.5"/>
      </defs>
      <g>
       <use xlink:href="#mcbcdbe2c39" x="175.571358" y="280.8" style="stroke: #000000; stroke-width: 0.5"/>
      </g>
     </g>
    </g>
    <g id="ytick_8">
     <g id="line2d_55">
      <g>
       <use xlink:href="#mf4192f43cf" x="8.171358" y="269.25" style="stroke: #000000; stroke-width: 0.5"/>
      </g>
     </g>
     <g id="line2d_56">
      <g>
       <use xlink:href="#mcbcdbe2c39" x="175.571358" y="269.25" style="stroke: #000000; stroke-width: 0.5"/>
      </g>
     </g>
    </g>
    <g id="ytick_9">
     <g id="line2d_57">
      <g>
       <use xlink:href="#mf4192f43cf" x="8.171358" y="246.15" style="stroke: #000000; stroke-width: 0.5"/>
      </g>
     </g>
     <g id="line2d_58">
      <g>
       <use xlink:href="#mcbcdbe2c39" x="175.571358" y="246.15" style="stroke: #000000; stroke-width: 0.5"/>
      </g>
     </g>
    </g>
    <g id="ytick_10">
     <g id="line2d_59">
      <g>
       <use xlink:href="#mf4192f43cf" x="8.171358" y="234.6" style="stroke: #000000; stroke-width: 0.5"/>
      </g>
     </g>
     <g id="line2d_60">
      <g>
       <use xlink:href="#mcbcdbe2c39" x="175.571358" y="234.6" style="stroke: #000000; stroke-width: 0.5"/>
      </g>
     </g>
    </g>
    <g id="ytick_11">
     <g id="line2d_61">
      <g>
       <use xlink:href="#mf4192f43cf" x="8.171358" y="223.05" style="stroke: #000000; stroke-width: 0.5"/>
      </g>
     </g>
     <g id="line2d_62">
      <g>
       <use xlink:href="#mcbcdbe2c39" x="175.571358" y="223.05" style="stroke: #000000; stroke-width: 0.5"/>
      </g>
     </g>
    </g>
    <g id="ytick_12">
     <g id="line2d_63">
      <g>
       <use xlink:href="#mf4192f43cf" x="8.171358" y="199.95" style="stroke: #000000; stroke-width: 0.5"/>
      </g>
     </g>
     <g id="line2d_64">
      <g>
       <use xlink:href="#mcbcdbe2c39" x="175.571358" y="199.95" style="stroke: #000000; stroke-width: 0.5"/>
      </g>
     </g>
    </g>
    <g id="ytick_13">
     <g id="line2d_65">
      <g>
       <use xlink:href="#mf4192f43cf" x="8.171358" y="188.4" style="stroke: #000000; stroke-width: 0.5"/>
      </g>
     </g>
     <g id="line2d_66">
      <g>
       <use xlink:href="#mcbcdbe2c39" x="175.571358" y="188.4" style="stroke: #000000; stroke-width: 0.5"/>
      </g>
     </g>
    </g>
    <g id="ytick_14">
     <g id="line2d_67">
      <g>
       <use xlink:href="#mf4192f43cf" x="8.171358" y="176.85" style="stroke: #000000; stroke-width: 0.5"/>
      </g>
     </g>
     <g id="line2d_68">
      <g>
       <use xlink:href="#mcbcdbe2c39" x="175.571358" y="176.85" style="stroke: #000000; stroke-width: 0.5"/>
      </g>
     </g>
    </g>
    <g id="ytick_15">
     <g id="line2d_69">
      <g>
       <use xlink:href="#mf4192f43cf" x="8.171358" y="153.75" style="stroke: #000000; stroke-width: 0.5"/>
      </g>
     </g>
     <g id="line2d_70">
      <g>
       <use xlink:href="#mcbcdbe2c39" x="175.571358" y="153.75" style="stroke: #000000; stroke-width: 0.5"/>
      </g>
     </g>
    </g>
    <g id="ytick_16">
     <g id="line2d_71">
      <g>
       <use xlink:href="#mf4192f43cf" x="8.171358" y="142.2" style="stroke: #000000; stroke-width: 0.5"/>
      </g>
     </g>
     <g id="line2d_72">
      <g>
       <use xlink:href="#mcbcdbe2c39" x="175.571358" y="142.2" style="stroke: #000000; stroke-width: 0.5"/>
      </g>
     </g>
    </g>
    <g id="ytick_17">
     <g id="line2d_73">
      <g>
       <use xlink:href="#mf4192f43cf" x="8.171358" y="130.65" style="stroke: #000000; stroke-width: 0.5"/>
      </g>
     </g>
     <g id="line2d_74">
      <g>
       <use xlink:href="#mcbcdbe2c39" x="175.571358" y="130.65" style="stroke: #000000; stroke-width: 0.5"/>
      </g>
     </g>
    </g>
    <g id="ytick_18">
     <g id="line2d_75">
      <g>
       <use xlink:href="#mf4192f43cf" x="8.171358" y="107.55" style="stroke: #000000; stroke-width: 0.5"/>
      </g>
     </g>
     <g id="line2d_76">
      <g>
       <use xlink:href="#mcbcdbe2c39" x="175.571358" y="107.55" style="stroke: #000000; stroke-width: 0.5"/>
      </g>
     </g>
    </g>
    <g id="ytick_19">
     <g id="line2d_77">
      <g>
       <use xlink:href="#mf4192f43cf" x="8.171358" y="96" style="stroke: #000000; stroke-width: 0.5"/>
      </g>
     </g>
     <g id="line2d_78">
      <g>
       <use xlink:href="#mcbcdbe2c39" x="175.571358" y="96" style="stroke: #000000; stroke-width: 0.5"/>
      </g>
     </g>
    </g>
    <g id="ytick_20">
     <g id="line2d_79">
      <g>
       <use xlink:href="#mf4192f43cf" x="8.171358" y="84.45" style="stroke: #000000; stroke-width: 0.5"/>
      </g>
     </g>
     <g id="line2d_80">
      <g>
       <use xlink:href="#mcbcdbe2c39" x="175.571358" y="84.45" style="stroke: #000000; stroke-width: 0.5"/>
      </g>
     </g>
    </g>
    <g id="ytick_21">
     <g id="line2d_81">
      <g>
       <use xlink:href="#mf4192f43cf" x="8.171358" y="61.35" style="stroke: #000000; stroke-width: 0.5"/>
      </g>
     </g>
     <g id="line2d_82">
      <g>
       <use xlink:href="#mcbcdbe2c39" x="175.571358" y="61.35" style="stroke: #000000; stroke-width: 0.5"/>
      </g>
     </g>
    </g>
    <g id="ytick_22">
     <g id="line2d_83">
      <g>
       <use xlink:href="#mf4192f43cf" x="8.171358" y="49.8" style="stroke: #000000; stroke-width: 0.5"/>
      </g>
     </g>
     <g id="line2d_84">
      <g>
       <use xlink:href="#mcbcdbe2c39" x="175.571358" y="49.8" style="stroke: #000000; stroke-width: 0.5"/>
      </g>
     </g>
    </g>
    <g id="ytick_23">
     <g id="line2d_85">
      <g>
       <use xlink:href="#mf4192f43cf" x="8.171358" y="38.25" style="stroke: #000000; stroke-width: 0.5"/>
      </g>
     </g>
     <g id="line2d_86">
      <g>
       <use xlink:href="#mcbcdbe2c39" x="175.571358" y="38.25" style="stroke: #000000; stroke-width: 0.5"/>
      </g>
     </g>
    </g>
    <g id="ytick_24">
     <g id="line2d_87">
      <g>
       <use xlink:href="#mf4192f43cf" x="8.171358" y="15.15" style="stroke: #000000; stroke-width: 0.5"/>
      </g>
     </g>
     <g id="line2d_88">
      <g>
       <use xlink:href="#mcbcdbe2c39" x="175.571358" y="15.15" style="stroke: #000000; stroke-width: 0.5"/>
      </g>
     </g>
    </g>
    <g id="ytick_25">
     <g id="line2d_89">
      <g>
       <use xlink:href="#mf4192f43cf" x="8.171358" y="3.6" style="stroke: #000000; stroke-width: 0.5"/>
      </g>
     </g>
     <g id="line2d_90">
      <g>
       <use xlink:href="#mcbcdbe2c39" x="175.571358" y="3.6" style="stroke: #000000; stroke-width: 0.5"/>
      </g>
     </g>
    </g>
   </g>
   <g id="line2d_91">
    <path d="M 39.782086 318.581374 
L 43.767718 310.152689 
L 48.221448 300.200702 
L 53.344913 288.186782 
L 59.640412 272.825187 
L 68.614847 250.291555 
L 80.536111 220.351417 
L 82.210446 216.891804 
L 83.482941 214.737711 
L 84.554515 213.335179 
L 85.458656 212.491098 
L 86.262337 212.031724 
L 86.965557 211.874613 
L 87.635291 211.949359 
L 88.338512 212.251828 
L 89.142193 212.852716 
L 90.046333 213.817735 
L 91.117908 215.300242 
L 92.423889 217.505553 
L 94.098224 220.802473 
L 96.743673 226.585309 
L 106.019488 247.05415 
L 114.625569 265.278589 
L 123.867898 284.359875 
L 131.502865 299.6222 
L 138.066257 312.263451 
L 141.45875 318.581374 
L 141.45875 318.581374 
" clip-path="url(#p0046591647)" style="fill: none; stroke: #000000; stroke-width: 1.3; stroke-linecap: square"/>
   </g>
   <g id="line2d_92">
    <path d="M 39.78155 318.581374 
L 43.767718 310.150915 
L 48.221448 300.198477 
L 53.344913 288.184271 
L 59.606925 272.904131 
L 68.58136 250.371139 
L 80.569598 220.2633 
L 82.210446 216.877895 
L 83.482941 214.724539 
L 84.554515 213.323303 
L 85.458656 212.480453 
L 86.262337 212.022029 
L 86.965557 211.865472 
L 87.635291 211.940397 
L 88.338512 212.242733 
L 89.142193 212.843189 
L 90.046333 213.807536 
L 91.117908 215.289268 
L 92.423889 217.494104 
L 94.098224 220.791275 
L 96.743673 226.575581 
L 106.019488 247.049345 
L 114.625569 265.275913 
L 123.867898 284.357544 
L 131.502865 299.620185 
L 138.066257 312.263203 
L 141.458727 318.581374 
L 141.458727 318.581374 
" clip-path="url(#p0046591647)" style="fill: none; stroke: #000000; stroke-width: 1.3; stroke-linecap: square"/>
   </g>
   <g id="line2d_93">
    <path d="M 8.171358 233.509745 
L 14.466857 233.173123 
L 18.451774 232.72302 
L 22.403205 232.051096 
L 26.488582 231.127767 
L 30.707906 229.944441 
L 35.094663 228.481274 
L 39.749314 226.68997 
L 44.772319 224.513404 
L 50.465057 221.794604 
L 59.138112 217.366986 
L 66.672619 213.612812 
L 70.992403 211.70741 
L 75.07778 210.154237 
L 85.92747 206.412135 
L 87.099504 206.329455 
L 88.204565 206.475041 
L 89.510546 206.88193 
L 91.184881 207.655084 
L 93.964277 209.217818 
L 97.07854 211.228052 
L 100.192803 213.500471 
L 103.206605 215.977665 
L 106.622249 219.082784 
L 111.009006 223.395533 
L 130.297344 242.715632 
L 134.985481 246.905807 
L 139.305265 250.473129 
L 143.357156 253.535183 
L 147.241612 256.193242 
L 150.958636 258.46958 
L 154.541712 260.404782 
L 158.024329 262.036751 
L 161.439972 263.394174 
L 164.721668 264.46181 
L 167.869418 265.254155 
L 170.950194 265.799265 
L 174.298864 266.159899 
L 175.571358 266.253571 
L 175.571358 266.253571 
" clip-path="url(#p0046591647)" style="fill: none; stroke: #000000; stroke-width: 1.3; stroke-linecap: square"/>
   </g>
   <g id="line2d_94">
    <path d="M 8.171358 233.50986 
L 14.466857 233.172817 
L 18.451774 232.721649 
L 22.403205 232.049168 
L 26.488582 231.126771 
L 30.707906 229.944387 
L 35.094663 228.480942 
L 39.715827 226.701955 
L 44.738832 224.526338 
L 50.43157 221.808914 
L 58.970678 217.449385 
L 66.605645 213.639522 
L 70.958916 211.714035 
L 75.07778 210.142182 
L 85.860496 206.408752 
L 87.066017 206.315314 
L 88.171078 206.454688 
L 89.47706 206.855014 
L 91.151394 207.622384 
L 93.863817 209.14215 
L 96.944593 211.124555 
L 100.058856 213.388601 
L 103.072659 215.856098 
L 106.454815 218.919671 
L 110.774599 223.154708 
L 119.648574 232.25494 
L 126.513347 239.122973 
L 131.703785 244.003989 
L 136.257976 247.986174 
L 140.510786 251.413382 
L 144.495703 254.34264 
L 148.313187 256.876019 
L 151.996723 259.05551 
L 155.546313 260.899957 
L 159.02893 262.460091 
L 162.411086 263.734186 
L 165.692783 264.734617 
L 168.840532 265.464561 
L 171.954795 265.956976 
L 175.203005 266.241077 
L 175.571358 266.261566 
L 175.571358 266.261566 
" clip-path="url(#p0046591647)" style="fill: none; stroke: #000000; stroke-width: 1.3; stroke-linecap: square"/>
   </g>
   <g id="line2d_95">
    <path d="M 8.171358 228.878096 
L 14.500344 228.543722 
L 18.485261 228.093809 
L 22.403205 227.426872 
L 26.455095 226.5102 
L 30.640932 225.333903 
L 34.994203 223.877684 
L 39.58188 222.104566 
L 44.504425 219.960309 
L 50.02973 217.303211 
L 57.798644 213.291437 
L 66.840052 208.672383 
L 71.32727 206.634012 
L 74.97732 205.215247 
L 78.192043 204.200265 
L 81.071898 203.519183 
L 83.650374 203.132071 
L 85.960956 203.003048 
L 88.070618 203.104872 
L 90.012847 203.421019 
L 91.821128 203.941238 
L 93.62941 204.698761 
L 95.571638 205.761273 
L 97.647814 207.155441 
L 100.025369 209.030519 
L 102.804765 211.516678 
L 106.220408 214.884122 
L 111.009006 219.944576 
L 126.245453 236.238197 
L 131.234971 241.135899 
L 135.655215 245.171598 
L 139.841052 248.696531 
L 143.758996 251.711352 
L 147.542993 254.346025 
L 151.193043 256.61933 
L 154.709146 258.550712 
L 158.158276 260.194778 
L 161.540432 261.561482 
L 164.788642 262.636334 
L 167.902905 263.435688 
L 170.950194 263.98822 
L 174.198404 264.347799 
L 175.571358 264.44786 
L 175.571358 264.44786 
" clip-path="url(#p0046591647)" style="fill: none; stroke: #000000; stroke-width: 1.3; stroke-linecap: square"/>
   </g>
   <g id="line2d_96">
    <path d="M 8.171358 228.877917 
L 14.500344 228.526296 
L 18.485261 228.065791 
L 22.436691 227.382408 
L 26.522069 226.44692 
L 30.707906 225.259163 
L 35.061176 223.791424 
L 39.682341 221.994784 
L 44.638372 219.824665 
L 50.264137 217.109128 
L 58.367918 212.918151 
L 66.773079 208.641169 
L 71.226809 206.622776 
L 74.876859 205.207336 
L 78.091582 204.19621 
L 80.971438 203.517864 
L 83.583401 203.127424 
L 85.92747 202.998278 
L 88.037132 203.100276 
L 89.97936 203.413993 
L 91.787642 203.930336 
L 93.595923 204.683505 
L 95.538152 205.741487 
L 97.614327 207.131318 
L 99.958396 208.974267 
L 102.737792 211.453671 
L 106.153435 214.815584 
L 110.908546 219.836104 
L 126.3794 236.37382 
L 131.335431 241.230995 
L 135.755675 245.259668 
L 139.941512 248.777376 
L 143.859456 251.784873 
L 147.643453 254.4122 
L 151.293503 256.678058 
L 154.809606 258.601956 
L 158.258736 260.238405 
L 161.640892 261.597691 
L 164.889102 262.666549 
L 168.036851 263.470013 
L 171.084141 264.019762 
L 174.265377 264.365941 
L 175.571358 264.453718 
L 175.571358 264.453718 
" clip-path="url(#p0046591647)" style="fill: none; stroke: #000000; stroke-width: 1.3; stroke-linecap: square"/>
   </g>
   <g id="line2d_97">
    <path d="M 8.171358 158.131339 
L 14.399884 157.783806 
L 18.317828 157.325608 
L 22.202285 156.643655 
L 26.220688 155.710083 
L 30.440012 154.498982 
L 34.960716 152.966118 
L 40.117668 150.974838 
L 49.52743 147.035133 
L 53.947674 145.344553 
L 56.961476 144.421249 
L 59.372519 143.907092 
L 61.448694 143.685524 
L 63.290462 143.707018 
L 64.998284 143.946797 
L 66.605645 144.396178 
L 68.146033 145.056661 
L 69.652935 145.942884 
L 71.159836 147.087021 
L 72.700224 148.542365 
L 74.274099 150.338716 
L 75.914947 152.552407 
L 77.823689 155.526296 
L 80.268218 159.781185 
L 82.88018 164.231398 
L 84.219648 166.098918 
L 85.224249 167.149687 
L 86.02793 167.698705 
L 86.73115 167.922432 
L 87.367398 167.889397 
L 88.003645 167.631165 
L 88.740352 167.078752 
L 89.611006 166.120024 
L 90.649094 164.618529 
L 91.988562 162.252004 
L 93.763357 158.631354 
L 97.07854 151.232932 
L 101.666217 141.216139 
L 104.947914 134.572208 
L 107.526389 129.818404 
L 109.435131 126.746741 
L 111.009006 124.62047 
L 112.348474 123.169484 
L 113.520508 122.215008 
L 114.558596 121.645396 
L 115.563197 121.351481 
L 116.567798 121.290138 
L 117.639372 121.453644 
L 118.811406 121.86892 
L 120.117388 122.575526 
L 121.724749 123.711117 
L 124.135791 125.725547 
L 132.373519 132.763364 
L 135.956595 135.435222 
L 139.506185 137.808012 
L 142.921828 139.827263 
L 146.203525 141.512171 
L 149.384761 142.897572 
L 152.465537 143.998492 
L 155.47934 144.840764 
L 158.459656 145.442684 
L 161.406485 145.812751 
L 164.453775 145.971466 
L 167.902905 145.918298 
L 173.997484 145.549646 
L 175.571358 145.449192 
L 175.571358 145.449192 
" clip-path="url(#p0046591647)" style="fill: none; stroke: #000000; stroke-width: 1.3; stroke-linecap: square"/>
   </g>
   <g id="line2d_98">
    <path d="M 8.171358 158.131336 
L 14.399884 157.783853 
L 18.317828 157.325627 
L 22.202285 156.643359 
L 26.220688 155.709067 
L 30.440012 154.498177 
L 34.960716 152.96604 
L 40.117668 150.974248 
L 49.82881 146.909487 
L 54.148594 145.2719 
L 57.095423 144.382453 
L 59.472979 143.887104 
L 61.549154 143.677237 
L 63.390922 143.711308 
L 65.098744 143.964451 
L 66.706105 144.428097 
L 68.246493 145.103942 
L 69.753395 146.006761 
L 71.260296 147.169066 
L 72.800684 148.644197 
L 74.408046 150.503555 
L 76.082381 152.795297 
L 78.024609 155.858497 
L 80.670058 160.497164 
L 82.947154 164.331942 
L 84.286621 166.177463 
L 85.291222 167.204029 
L 86.094903 167.728852 
L 86.764637 167.924427 
L 87.400884 167.879181 
L 88.070618 167.589603 
L 88.807326 167.013913 
L 89.67798 166.031668 
L 90.716067 164.507846 
L 92.055535 162.121551 
L 93.863817 158.412604 
L 97.513867 150.256263 
L 101.934111 140.650159 
L 105.148834 134.178511 
L 107.660336 129.580625 
L 109.535591 126.590112 
L 111.075979 124.529832 
L 112.415447 123.096411 
L 113.587482 122.159787 
L 114.625569 121.607864 
L 115.63017 121.33059 
L 116.634771 121.284447 
L 117.706345 121.462508 
L 118.87838 121.891654 
L 120.217848 122.632165 
L 121.858696 123.810056 
L 124.370198 125.926142 
L 132.038652 132.497605 
L 135.655215 135.220526 
L 139.204805 137.617023 
L 142.620448 139.65914 
L 145.902145 141.366429 
L 149.083381 142.774764 
L 152.164157 143.89909 
L 155.17796 144.76499 
L 158.158276 145.390575 
L 161.105105 145.783514 
L 164.152395 145.964634 
L 167.534551 145.936229 
L 172.791963 145.636245 
L 175.571358 145.448233 
L 175.571358 145.448233 
" clip-path="url(#p0046591647)" style="fill: none; stroke: #000000; stroke-width: 1.3; stroke-linecap: square"/>
   </g>
   <g id="line2d_99">
    <path d="M 8.171358 73.233789 
L 16.610006 72.961694 
L 27.325749 72.285227 
L 32.28178 72.132813 
L 35.965317 72.23664 
L 39.146553 72.545027 
L 42.059896 73.049029 
L 44.839292 73.755326 
L 47.585201 74.683769 
L 50.398084 75.873251 
L 53.3784 77.379943 
L 56.693583 79.312299 
L 60.57804 81.84358 
L 65.098744 85.059306 
L 74.843373 92.113491 
L 77.153955 93.399749 
L 79.263617 94.324208 
L 81.272819 94.965051 
L 83.282021 95.376835 
L 85.458656 95.589641 
L 88.271538 95.624514 
L 91.452775 95.700227 
L 93.22757 95.972234 
L 94.901904 96.453796 
L 96.475779 97.136507 
L 98.150114 98.116958 
L 100.058856 99.503935 
L 102.402925 101.500566 
L 109.703025 107.941963 
L 111.243413 108.870325 
L 112.549394 109.410408 
L 113.721428 109.666221 
L 114.826489 109.682295 
L 115.998524 109.465693 
L 117.337992 108.98065 
L 119.012327 108.1215 
L 124.905985 104.868266 
L 126.446373 104.415093 
L 127.886301 104.221853 
L 129.259256 104.261592 
L 130.699184 104.530303 
L 132.206085 105.042459 
L 133.813447 105.826864 
L 135.621728 106.964876 
L 137.697904 108.544302 
L 140.209406 110.749853 
L 143.524589 113.981224 
L 150.657256 121.347249 
L 155.613287 126.268973 
L 159.53123 129.852354 
L 162.98036 132.714922 
L 166.094623 135.019181 
L 168.840532 136.784504 
L 171.285061 138.098884 
L 173.394723 138.986368 
L 175.269978 139.542073 
L 175.571358 139.608336 
L 175.571358 139.608336 
" clip-path="url(#p0046591647)" style="fill: none; stroke: #000000; stroke-width: 1.3; stroke-linecap: square"/>
   </g>
   <g id="line2d_100">
    <path d="M 8.171358 73.233868 
L 16.643493 72.958752 
L 34.023089 72.151639 
L 37.438732 72.349854 
L 40.486021 72.747895 
L 43.332391 73.343716 
L 46.0783 74.145817 
L 48.824209 75.178857 
L 51.704065 76.503638 
L 54.818328 78.187712 
L 58.367918 80.367682 
L 62.620728 83.250602 
L 67.710706 86.981904 
L 73.503905 91.211404 
L 76.048894 92.781215 
L 78.259016 93.885325 
L 80.301704 94.662049 
L 82.310906 95.190876 
L 84.353595 95.499255 
L 86.73115 95.623651 
L 92.356915 95.799501 
L 94.064737 96.17094 
L 95.672099 96.745015 
L 97.245973 97.543703 
L 99.020768 98.705269 
L 101.096943 100.344513 
L 103.909826 102.878747 
L 108.564477 107.084596 
L 110.305785 108.332036 
L 111.745713 109.100781 
L 113.018208 109.53419 
L 114.156755 109.693921 
L 115.261816 109.62242 
L 116.467338 109.316928 
L 117.907266 108.710682 
L 119.816007 107.644618 
L 123.968358 105.25721 
L 125.575719 104.641649 
L 127.049134 104.305913 
L 128.455575 104.211901 
L 129.862017 104.346883 
L 131.335431 104.718933 
L 132.875819 105.341022 
L 134.550154 106.260417 
L 136.458896 107.570434 
L 138.702505 109.393276 
L 141.448414 111.925457 
L 145.433331 115.934134 
L 155.27842 125.946283 
L 159.22985 129.58559 
L 162.745953 132.52885 
L 165.92719 134.906406 
L 168.706585 136.716161 
L 171.151114 138.053437 
L 173.22729 138.944997 
L 175.069058 139.50129 
L 175.571358 139.608464 
L 175.571358 139.608464 
" clip-path="url(#p0046591647)" style="fill: none; stroke: #000000; stroke-width: 1.3; stroke-linecap: square"/>
   </g>
   <g id="line2d_101">
    <path d="M 8.171358 71.054057 
L 16.074219 70.772264 
L 22.671098 70.27378 
L 31.344153 69.638536 
L 35.295583 69.583379 
L 38.57728 69.756971 
L 41.490622 70.129567 
L 44.236531 70.70206 
L 46.915467 71.487991 
L 49.594403 72.505581 
L 52.407286 73.814288 
L 55.488062 75.498689 
L 59.104625 77.740212 
L 63.357436 80.642856 
L 67.710706 83.88515 
L 72.197924 87.226602 
L 74.441532 88.589551 
L 76.450734 89.555952 
L 78.526909 90.306289 
L 80.770518 90.878641 
L 83.382481 91.309473 
L 86.396283 91.582259 
L 89.075219 91.614873 
L 90.950474 91.423834 
L 92.557836 91.040081 
L 94.098224 90.439884 
L 95.571638 89.628081 
L 97.045053 88.56249 
L 98.652415 87.118935 
L 100.460696 85.186446 
L 102.536871 82.626067 
L 104.914427 79.326932 
L 107.760796 74.981626 
L 111.109466 69.448586 
L 115.02741 62.536923 
L 119.648574 53.918077 
L 125.743153 42.03913 
L 135.186401 23.10529 
L 146.971539 -1 
L 146.971539 -1 
" clip-path="url(#p0046591647)" style="fill: none; stroke: #000000; stroke-width: 1.3; stroke-linecap: square"/>
   </g>
   <g id="line2d_102">
    <path d="M 8.171358 71.05442 
L 16.007246 70.763685 
L 22.570638 70.259046 
L 31.411126 69.593704 
L 35.32907 69.534758 
L 38.57728 69.701726 
L 41.490622 70.069878 
L 44.236531 70.639922 
L 46.915467 71.425293 
L 49.594403 72.443807 
L 52.407286 73.754867 
L 55.488062 75.4435 
L 59.071138 77.670599 
L 63.323949 80.582012 
L 67.744193 83.879798 
L 72.164437 87.170153 
L 74.408046 88.538132 
L 76.417248 89.51211 
L 78.493423 90.272008 
L 80.737032 90.855279 
L 83.348994 91.296824 
L 86.295823 91.57291 
L 89.008246 91.612431 
L 90.883501 91.427077 
L 92.490862 91.050757 
L 94.03125 90.459551 
L 95.538152 89.636994 
L 97.011566 88.577252 
L 98.618928 87.140165 
L 100.42721 85.214544 
L 102.469898 82.70483 
L 104.847454 79.41712 
L 107.693823 75.082246 
L 111.042493 69.558305 
L 114.960436 62.654966 
L 119.5816 54.04396 
L 125.575719 42.364648 
L 135.186401 23.099393 
L 146.964668 -1 
L 146.964668 -1 
" clip-path="url(#p0046591647)" style="fill: none; stroke: #000000; stroke-width: 1.3; stroke-linecap: square"/>
   </g>
   <g id="line2d_103">
    <path d="M 8.171358 3.077518 
L 18.853615 2.943148 
L 21.097224 3.177942 
L 22.872019 3.580664 
L 24.412407 4.154665 
L 25.852335 4.927366 
L 27.258776 5.938741 
L 28.63173 7.202614 
L 30.071658 8.834835 
L 31.612047 10.922477 
L 33.286381 13.577457 
L 35.22861 17.091992 
L 37.572679 21.81737 
L 40.753915 28.778916 
L 47.049414 43.221717 
L 53.07702 56.802469 
L 57.061936 65.256449 
L 60.142713 71.302186 
L 62.620728 75.706571 
L 64.73039 79.018731 
L 66.572159 81.507263 
L 68.213007 83.361019 
L 69.887342 84.91362 
L 71.662137 86.257735 
L 73.671338 87.495358 
L 76.048894 88.687102 
L 78.660856 89.752807 
L 81.239332 90.566462 
L 83.516427 91.058093 
L 85.559116 91.278237 
L 87.400884 91.256914 
L 89.142193 91.012772 
L 90.783041 90.560197 
L 92.390402 89.887639 
L 94.064737 88.940424 
L 95.839532 87.67232 
L 97.714787 86.051816 
L 99.757476 83.986121 
L 102.034571 81.355196 
L 104.546073 78.102232 
L 107.358956 74.08478 
L 110.573679 69.091233 
L 114.223729 63.000761 
L 118.409566 55.570904 
L 123.164677 46.662683 
L 128.489062 36.205749 
L 134.851534 23.184503 
L 146.337472 -0.932195 
L 146.369717 -1 
L 146.369717 -1 
" clip-path="url(#p0046591647)" style="fill: none; stroke: #000000; stroke-width: 1.3; stroke-linecap: square"/>
   </g>
   <g id="line2d_104">
    <path d="M 86.720589 202.998131 
L 111.186743 202.998131 
" clip-path="url(#p0046591647)" style="fill: none; stroke-dasharray: 3.7,1.6; stroke-dashoffset: 0; stroke: #000000"/>
   </g>
   <g id="line2d_105">
    <path d="M 86.720589 167.935388 
L 111.186743 167.935388 
" clip-path="url(#p0046591647)" style="fill: none; stroke-dasharray: 3.7,1.6; stroke-dashoffset: 0; stroke: #000000"/>
   </g>
   <g id="patch_3">
    <path d="M 8.171358 280.8 
L 8.171358 3.6 
" style="fill: none; stroke: #000000; stroke-width: 0.5; stroke-linejoin: miter; stroke-linecap: square"/>
   </g>
   <g id="patch_4">
    <path d="M 175.571358 280.8 
L 175.571358 3.6 
" style="fill: none; stroke: #000000; stroke-width: 0.5; stroke-linejoin: miter; stroke-linecap: square"/>
   </g>
   <g id="patch_5">
    <path d="M 8.171358 280.8 
L 175.571358 280.8 
" style="fill: none; stroke: #000000; stroke-width: 0.5; stroke-linejoin: miter; stroke-linecap: square"/>
   </g>
   <g id="patch_6">
    <path d="M 8.171358 3.6 
L 175.571358 3.6 
" style="fill: none; stroke: #000000; stroke-width: 0.5; stroke-linejoin: miter; stroke-linecap: square"/>
   </g>
   <g id="patch_7">
    <path d="M 111.186743 199.881281 
Q 111.186743 185.466293 111.186743 171.051304 
" style="fill: none; stroke: #000000; stroke-linecap: round"/>
    <path d="M 113.186743 195.881281 
L 111.186743 199.881281 
L 109.186743 195.881281 
" style="fill: none; stroke: #000000; stroke-linecap: round"/>
    <path d="M 109.186743 175.051304 
L 111.186743 171.051304 
L 113.186743 175.051304 
" style="fill: none; stroke: #000000; stroke-linecap: round"/>
   </g>
   <g id="text_7">
    <!-- $E_g$=1.42 eV -->
    <g transform="translate(113.386743 187.879936) scale(0.12 -0.12)">
     <defs>
      <path id="CMMI12-45" d="M 4448 1489 
C 4454 1508 4474 1554 4474 1579 
C 4474 1611 4448 1643 4410 1643 
C 4384 1643 4371 1637 4352 1617 
C 4339 1611 4339 1598 4282 1469 
C 3904 570 3629 185 2605 185 
L 1670 185 
C 1581 185 1568 185 1530 192 
C 1459 198 1453 211 1453 262 
C 1453 307 1466 345 1478 403 
L 1920 2176 
L 2554 2176 
C 3053 2176 3091 2066 3091 1874 
C 3091 1810 3091 1752 3046 1560 
C 3034 1534 3027 1508 3027 1489 
C 3027 1444 3059 1425 3098 1425 
C 3155 1425 3162 1469 3187 1559 
L 3552 3042 
C 3552 3073 3526 3105 3488 3105 
C 3430 3105 3424 3080 3398 2990 
C 3270 2501 3142 2361 2573 2361 
L 1965 2361 
L 2362 3930 
C 2419 4154 2432 4154 2694 4154 
L 3610 4154 
C 4397 4154 4557 3943 4557 3458 
C 4557 3451 4557 3273 4531 3062 
C 4525 3036 4518 2998 4518 2985 
C 4518 2934 4550 2915 4589 2915 
C 4634 2915 4659 2941 4672 3055 
L 4806 4174 
C 4806 4195 4819 4263 4819 4277 
C 4819 4352 4762 4352 4646 4352 
L 1523 4352 
C 1402 4352 1338 4352 1338 4229 
C 1338 4154 1382 4154 1491 4154 
C 1888 4154 1888 4114 1888 4052 
C 1888 4020 1882 3994 1862 3924 
L 998 473 
C 941 249 928 185 480 185 
C 358 185 294 185 294 70 
C 294 0 333 0 461 0 
L 3674 0 
C 3814 0 3821 6 3866 110 
L 4448 1489 
z
" transform="scale(0.015625)"/>
      <path id="CMMI12-67" d="M 2163 811 
C 2138 709 2125 683 2042 588 
C 1779 249 1510 128 1312 128 
C 1101 128 902 294 902 734 
C 902 1073 1094 1788 1235 2076 
C 1421 2433 1709 2689 1978 2689 
C 2400 2689 2483 2165 2483 2127 
L 2464 2037 
L 2163 811 
z
M 2560 2395 
C 2477 2580 2298 2816 1978 2816 
C 1280 2816 486 1941 486 990 
C 486 326 890 0 1299 0 
C 1638 0 1939 268 2054 396 
L 1914 -171 
C 1824 -516 1786 -674 1555 -894 
C 1293 -1152 1050 -1152 909 -1152 
C 717 -1152 557 -1139 397 -1089 
C 602 -1033 653 -858 653 -789 
C 653 -689 576 -588 435 -588 
C 282 -588 115 -714 115 -922 
C 115 -1180 378 -1280 922 -1280 
C 1747 -1280 2176 -753 2259 -410 
L 2970 2435 
C 2989 2511 2989 2524 2989 2536 
C 2989 2625 2918 2695 2822 2695 
C 2669 2695 2579 2567 2560 2395 
z
" transform="scale(0.015625)"/>
      <path id="CMR17-3d" d="M 4115 2017 
C 4211 2017 4307 2017 4307 2125 
C 4307 2240 4198 2240 4090 2240 
L 512 2240 
C 403 2240 294 2240 294 2125 
C 294 2017 390 2017 486 2017 
L 4115 2017 
z
M 4090 896 
C 4198 896 4307 896 4307 1011 
C 4307 1119 4211 1119 4115 1119 
L 486 1119 
C 390 1119 294 1119 294 1011 
C 294 896 403 896 512 896 
L 4090 896 
z
" transform="scale(0.015625)"/>
      <path id="CMR17-31" d="M 1702 4058 
C 1702 4192 1696 4192 1606 4192 
C 1357 3916 979 3827 621 3827 
C 602 3827 570 3827 563 3808 
C 557 3795 557 3782 557 3648 
C 755 3648 1088 3686 1344 3839 
L 1344 461 
C 1344 236 1331 160 781 160 
L 589 160 
L 589 0 
C 896 0 1216 0 1523 0 
C 1830 0 2150 0 2458 0 
L 2458 160 
L 2266 160 
C 1715 160 1702 230 1702 458 
L 1702 4058 
z
" transform="scale(0.015625)"/>
      <path id="CMR17-2e" d="M 1062 261 
C 1062 420 934 522 800 522 
C 672 522 538 420 538 261 
C 538 102 666 0 800 0 
C 928 0 1062 102 1062 261 
z
" transform="scale(0.015625)"/>
      <path id="CMR17-34" d="M 2150 4122 
C 2150 4256 2144 4256 2029 4256 
L 128 1254 
L 128 1088 
L 1779 1088 
L 1779 457 
C 1779 224 1766 160 1318 160 
L 1197 160 
L 1197 0 
C 1402 0 1747 0 1965 0 
C 2182 0 2528 0 2733 0 
L 2733 160 
L 2611 160 
C 2163 160 2150 224 2150 457 
L 2150 1088 
L 2803 1088 
L 2803 1254 
L 2150 1254 
L 2150 4122 
z
M 1798 3703 
L 1798 1254 
L 256 1254 
L 1798 3703 
z
" transform="scale(0.015625)"/>
      <path id="CMR17-32" d="M 2669 989 
L 2554 989 
C 2490 536 2438 459 2413 420 
C 2381 369 1920 369 1830 369 
L 602 369 
C 832 619 1280 1072 1824 1597 
C 2214 1967 2669 2402 2669 3035 
C 2669 3790 2067 4224 1395 4224 
C 691 4224 262 3604 262 3030 
C 262 2780 448 2748 525 2748 
C 589 2748 781 2787 781 3010 
C 781 3207 614 3264 525 3264 
C 486 3264 448 3258 422 3245 
C 544 3790 915 4058 1306 4058 
C 1862 4058 2227 3617 2227 3035 
C 2227 2479 1901 2000 1536 1584 
L 262 146 
L 262 0 
L 2515 0 
L 2669 989 
z
" transform="scale(0.015625)"/>
      <path id="CMR17-56" d="M 3776 3745 
C 3834 3886 3936 4160 4365 4160 
L 4365 4332 
C 4218 4319 4051 4319 3891 4319 
C 3738 4319 3475 4319 3328 4332 
L 3328 4160 
C 3648 4160 3661 3936 3661 3898 
C 3661 3827 3642 3783 3622 3732 
L 2362 446 
L 1043 3886 
C 1024 3931 1011 3963 1011 3994 
C 1011 4160 1267 4160 1402 4160 
L 1402 4319 
C 1197 4319 896 4319 685 4319 
C 518 4319 218 4319 64 4332 
L 64 4160 
C 435 4160 506 4135 582 3931 
L 2106 -26 
C 2138 -115 2144 -128 2214 -128 
C 2285 -128 2291 -115 2323 -26 
L 3776 3745 
z
" transform="scale(0.015625)"/>
     </defs>
     <use xlink:href="#CMMI12-45" transform="scale(0.996264)"/>
     <use xlink:href="#CMMI12-67" transform="translate(72.211218 -14.943915) scale(0.697382)"/>
     <use xlink:href="#CMR17-3d" transform="translate(107.909031 0) scale(0.996264)"/>
     <use xlink:href="#CMR17-31" transform="translate(179.62382 0) scale(0.996264)"/>
     <use xlink:href="#CMR17-2e" transform="translate(225.314297 0) scale(0.996264)"/>
     <use xlink:href="#CMR17-34" transform="translate(250.185355 0) scale(0.996264)"/>
     <use xlink:href="#CMR17-32" transform="translate(295.875832 0) scale(0.996264)"/>
     <use xlink:href="#CMR17-65" transform="translate(371.642276 0) scale(0.996264)"/>
     <use xlink:href="#CMR17-56" transform="translate(412.127936 0) scale(0.996264)"/>
    </g>
   </g>
   <g id="text_8">
    <!-- HH -->
    <g transform="translate(14.60982 220.74) scale(0.12 -0.12)">
     <defs>
      <path id="CMR17-48" d="M 3590 3905 
C 3590 4192 3661 4192 4102 4192 
L 4102 4352 
C 3917 4352 3578 4352 3379 4352 
C 3181 4352 2842 4352 2656 4352 
L 2656 4192 
C 3098 4192 3168 4192 3168 3904 
L 3168 2341 
L 1261 2341 
L 1261 3904 
C 1261 4192 1331 4192 1773 4192 
L 1773 4352 
C 1587 4352 1248 4352 1050 4352 
C 851 4352 512 4352 326 4352 
L 326 4192 
C 768 4192 838 4192 838 3905 
L 838 447 
C 838 160 768 160 326 160 
L 326 0 
C 512 0 851 0 1050 0 
C 1248 0 1587 0 1773 0 
L 1773 160 
C 1331 160 1261 160 1261 446 
L 1261 2176 
L 3168 2176 
L 3168 446 
C 3168 160 3098 160 2656 160 
L 2656 0 
C 2842 0 3181 0 3379 0 
C 3578 0 3917 0 4102 0 
L 4102 160 
C 3661 160 3590 160 3590 447 
L 3590 3905 
z
" transform="scale(0.015625)"/>
     </defs>
     <use xlink:href="#CMR17-48" transform="scale(0.996264)"/>
     <use xlink:href="#CMR17-48" transform="translate(69.07243 0) scale(0.996264)"/>
    </g>
   </g>
   <g id="text_9">
    <!-- LH -->
    <g transform="translate(14.60982 246.15) scale(0.12 -0.12)">
     <use xlink:href="#CMR17-4c" transform="scale(0.996264)"/>
     <use xlink:href="#CMR17-48" transform="translate(57.381408 0) scale(0.996264)"/>
    </g>
   </g>
   <g id="text_10">
    <!-- SO -->
    <g transform="translate(50.665205 246.15) scale(0.12 -0.12)">
     <defs>
      <path id="CMR17-53" d="M 2803 4290 
C 2803 4404 2797 4411 2758 4411 
C 2720 4411 2707 4385 2682 4328 
L 2490 3907 
C 2246 4257 1875 4416 1472 4416 
C 819 4416 294 3901 294 3253 
C 294 3056 339 2776 557 2510 
C 794 2218 1018 2167 1530 2033 
C 1722 1982 2042 1899 2106 1874 
C 2470 1722 2662 1341 2662 985 
C 2662 527 2336 38 1779 38 
C 1094 38 454 419 410 1311 
C 403 1413 397 1419 352 1419 
C 301 1419 294 1413 294 1285 
L 294 -1 
C 294 -115 301 -122 339 -122 
C 384 -122 397 -90 486 108 
C 493 127 493 140 614 381 
C 934 -39 1472 -128 1779 -128 
C 2477 -128 2970 451 2970 1124 
C 2970 1454 2848 1708 2778 1823 
C 2509 2230 2221 2306 1914 2382 
C 1869 2402 1856 2402 1498 2490 
C 1152 2579 1005 2624 845 2796 
C 666 2992 602 3196 602 3399 
C 602 3812 934 4263 1478 4263 
C 2157 4263 2579 3786 2675 2993 
C 2694 2878 2701 2872 2746 2872 
C 2803 2872 2803 2891 2803 2999 
L 2803 4290 
z
" transform="scale(0.015625)"/>
      <path id="CMR17-4f" d="M 4307 2135 
C 4307 3437 3366 4416 2304 4416 
C 1216 4416 294 3424 294 2135 
C 294 845 1229 -128 2298 -128 
C 3392 -128 4307 864 4307 2135 
z
M 2304 -13 
C 1574 -13 781 711 781 2217 
C 781 3716 1651 4301 2298 4301 
C 2976 4301 3821 3698 3821 2217 
C 3821 686 3008 -13 2304 -13 
z
" transform="scale(0.015625)"/>
     </defs>
     <use xlink:href="#CMR17-53" transform="scale(0.996264)"/>
     <use xlink:href="#CMR17-4f" transform="translate(50.89537 0) scale(0.996264)"/>
    </g>
   </g>
   <g id="text_11">
    <!-- CB -->
    <g transform="translate(14.60982 169.92) scale(0.12 -0.12)">
     <defs>
      <path id="CMR17-43" d="M 3974 4289 
C 3974 4403 3968 4410 3930 4410 
C 3904 4410 3898 4403 3853 4327 
L 3571 3792 
C 3258 4187 2874 4416 2381 4416 
C 1286 4416 294 3456 294 2148 
C 294 826 1286 -128 2387 -128 
C 3366 -128 3974 730 3974 1461 
C 3974 1524 3974 1550 3917 1550 
C 3866 1550 3866 1531 3859 1474 
C 3808 585 3168 38 2477 38 
C 1824 38 781 495 781 2147 
C 781 3805 1843 4250 2464 4250 
C 3187 4250 3712 3628 3834 2745 
C 3846 2668 3846 2655 3904 2655 
C 3974 2655 3974 2668 3974 2783 
L 3974 4289 
z
" transform="scale(0.015625)"/>
      <path id="CMR17-42" d="M 333 4352 
L 333 4186 
C 774 4186 845 4186 845 3900 
L 845 452 
C 845 166 774 166 333 166 
L 333 0 
L 2534 0 
C 3354 0 3885 583 3885 1164 
C 3885 1741 3360 2233 2675 2233 
C 3290 2356 3718 2771 3718 3264 
C 3718 3802 3194 4352 2368 4352 
L 333 4352 
z
M 1248 2304 
L 1248 3937 
C 1248 4155 1261 4186 1517 4186 
L 2336 4186 
C 2970 4186 3251 3674 3251 3277 
C 3251 2791 2861 2304 2170 2304 
L 1248 2304 
z
M 1517 166 
C 1261 166 1248 197 1248 413 
L 1248 2202 
L 2432 2202 
C 3091 2202 3411 1625 3411 1162 
C 3411 699 3046 166 2349 166 
L 1517 166 
z
" transform="scale(0.015625)"/>
     </defs>
     <use xlink:href="#CMR17-43" transform="scale(0.996264)"/>
     <use xlink:href="#CMR17-42" transform="translate(66.509881 0) scale(0.996264)"/>
    </g>
   </g>
  </g>
 </g>
 <defs>
  <clipPath id="p0046591647">
   <rect x="8.171358" y="3.6" width="167.4" height="277.2"/>
  </clipPath>
 </defs>
</svg>
